<mxfile host="app.diagrams.net" modified="2022-05-17T02:33:53.214Z" agent="5.0 (Macintosh; Intel Mac OS X 10_15_7) AppleWebKit/537.36 (KHTML, like Gecko) Chrome/101.0.4951.64 Safari/537.36" etag="nSKr-v1Fp5nHik24F_hI" version="18.0.3" type="github">
  <diagram id="vYhIYeuhMKYq1YM2tLH0" name="Page-1">
    <mxGraphModel dx="1298" dy="728" grid="1" gridSize="10" guides="1" tooltips="1" connect="1" arrows="1" fold="1" page="1" pageScale="1" pageWidth="850" pageHeight="1100" math="0" shadow="0">
      <root>
        <mxCell id="0" />
        <mxCell id="1" parent="0" />
        <mxCell id="VPi010c3T4Fb0CU36pfW-5" style="edgeStyle=orthogonalEdgeStyle;rounded=0;orthogonalLoop=1;jettySize=auto;html=1;exitX=0.5;exitY=0;exitDx=0;exitDy=0;entryX=0.5;entryY=1;entryDx=0;entryDy=0;fontSize=14;" edge="1" parent="1" source="00cH1n4YGTlZ0PjOOUdn-2" target="VPi010c3T4Fb0CU36pfW-1">
          <mxGeometry relative="1" as="geometry" />
        </mxCell>
        <mxCell id="VPi010c3T4Fb0CU36pfW-17" style="edgeStyle=orthogonalEdgeStyle;rounded=0;orthogonalLoop=1;jettySize=auto;html=1;exitX=0.75;exitY=0;exitDx=0;exitDy=0;entryX=0.5;entryY=1;entryDx=0;entryDy=0;fontSize=14;" edge="1" parent="1" source="00cH1n4YGTlZ0PjOOUdn-2" target="VPi010c3T4Fb0CU36pfW-15">
          <mxGeometry relative="1" as="geometry" />
        </mxCell>
        <mxCell id="00cH1n4YGTlZ0PjOOUdn-2" value="Pool API Service" style="rounded=0;whiteSpace=wrap;html=1;fontSize=14;" parent="1" vertex="1">
          <mxGeometry x="1250" y="640" width="130" height="70" as="geometry" />
        </mxCell>
        <mxCell id="VPi010c3T4Fb0CU36pfW-7" style="edgeStyle=orthogonalEdgeStyle;rounded=0;orthogonalLoop=1;jettySize=auto;html=1;exitX=0.75;exitY=1;exitDx=0;exitDy=0;entryX=0.435;entryY=-0.031;entryDx=0;entryDy=0;entryPerimeter=0;fontSize=14;" edge="1" parent="1" source="00cH1n4YGTlZ0PjOOUdn-3" target="00cH1n4YGTlZ0PjOOUdn-7">
          <mxGeometry relative="1" as="geometry" />
        </mxCell>
        <mxCell id="00cH1n4YGTlZ0PjOOUdn-3" value="Pool Scan Service Master" style="rounded=0;whiteSpace=wrap;html=1;fontSize=14;" parent="1" vertex="1">
          <mxGeometry x="610" y="640" width="130" height="70" as="geometry" />
        </mxCell>
        <mxCell id="VPi010c3T4Fb0CU36pfW-6" style="edgeStyle=orthogonalEdgeStyle;rounded=0;orthogonalLoop=1;jettySize=auto;html=1;exitX=0.5;exitY=0;exitDx=0;exitDy=0;entryX=0.5;entryY=1;entryDx=0;entryDy=0;fontSize=14;" edge="1" parent="1" source="00cH1n4YGTlZ0PjOOUdn-4" target="00cH1n4YGTlZ0PjOOUdn-3">
          <mxGeometry relative="1" as="geometry">
            <Array as="points">
              <mxPoint x="345" y="750" />
              <mxPoint x="675" y="750" />
            </Array>
          </mxGeometry>
        </mxCell>
        <mxCell id="00cH1n4YGTlZ0PjOOUdn-4" value="Message Broker" style="rounded=0;whiteSpace=wrap;html=1;fontSize=14;" parent="1" vertex="1">
          <mxGeometry x="265" y="840" width="160" height="80" as="geometry" />
        </mxCell>
        <mxCell id="VPi010c3T4Fb0CU36pfW-10" style="edgeStyle=orthogonalEdgeStyle;rounded=0;orthogonalLoop=1;jettySize=auto;html=1;exitX=0.5;exitY=0;exitDx=0;exitDy=0;entryX=0.75;entryY=1;entryDx=0;entryDy=0;fontSize=14;" edge="1" parent="1" source="00cH1n4YGTlZ0PjOOUdn-5" target="VPi010c3T4Fb0CU36pfW-2">
          <mxGeometry relative="1" as="geometry" />
        </mxCell>
        <mxCell id="00cH1n4YGTlZ0PjOOUdn-5" value="Subgraphs&lt;br style=&quot;font-size: 14px;&quot;&gt;(Ethereum, BSC, Polygon, ...)" style="rounded=0;whiteSpace=wrap;html=1;fontSize=14;" parent="1" vertex="1">
          <mxGeometry x="1130" y="840" width="190" height="80" as="geometry" />
        </mxCell>
        <mxCell id="VPi010c3T4Fb0CU36pfW-9" style="edgeStyle=orthogonalEdgeStyle;rounded=0;orthogonalLoop=1;jettySize=auto;html=1;exitX=0.5;exitY=0;exitDx=0;exitDy=0;entryX=0.5;entryY=1;entryDx=0;entryDy=0;fontSize=14;" edge="1" parent="1" source="00cH1n4YGTlZ0PjOOUdn-6" target="VPi010c3T4Fb0CU36pfW-2">
          <mxGeometry relative="1" as="geometry" />
        </mxCell>
        <mxCell id="00cH1n4YGTlZ0PjOOUdn-6" value="&lt;span style=&quot;font-size: 14px;&quot;&gt;RPC Nodes&lt;/span&gt;&lt;br style=&quot;padding: 0px; margin: 0px; font-size: 14px;&quot;&gt;&lt;span style=&quot;font-size: 14px;&quot;&gt;(Ethereum, BSC, Polygon, ...)&lt;/span&gt;" style="rounded=0;whiteSpace=wrap;html=1;fontSize=14;" parent="1" vertex="1">
          <mxGeometry x="825" y="840" width="220" height="80" as="geometry" />
        </mxCell>
        <mxCell id="VPi010c3T4Fb0CU36pfW-8" style="edgeStyle=orthogonalEdgeStyle;rounded=0;orthogonalLoop=1;jettySize=auto;html=1;exitX=1;exitY=0.5;exitDx=0;exitDy=0;entryX=0;entryY=0.5;entryDx=0;entryDy=0;fontSize=14;" edge="1" parent="1" source="00cH1n4YGTlZ0PjOOUdn-7" target="VPi010c3T4Fb0CU36pfW-2">
          <mxGeometry relative="1" as="geometry" />
        </mxCell>
        <mxCell id="00cH1n4YGTlZ0PjOOUdn-7" value="Tasks queue" style="rounded=0;whiteSpace=wrap;html=1;fontSize=14;" parent="1" vertex="1">
          <mxGeometry x="530" y="840" width="170" height="80" as="geometry" />
        </mxCell>
        <mxCell id="VPi010c3T4Fb0CU36pfW-14" style="edgeStyle=orthogonalEdgeStyle;rounded=0;orthogonalLoop=1;jettySize=auto;html=1;exitX=0.75;exitY=0;exitDx=0;exitDy=0;entryX=1;entryY=0.5;entryDx=0;entryDy=0;fontSize=14;" edge="1" parent="1" source="00cH1n4YGTlZ0PjOOUdn-8" target="00cH1n4YGTlZ0PjOOUdn-2">
          <mxGeometry relative="1" as="geometry" />
        </mxCell>
        <mxCell id="00cH1n4YGTlZ0PjOOUdn-8" value="Datastore&lt;br style=&quot;font-size: 14px;&quot;&gt;(Redis)" style="rounded=0;whiteSpace=wrap;html=1;fontSize=14;" parent="1" vertex="1">
          <mxGeometry x="1360" y="840" width="130" height="80" as="geometry" />
        </mxCell>
        <mxCell id="VPi010c3T4Fb0CU36pfW-1" value="gRPC Gateway" style="rounded=0;whiteSpace=wrap;html=1;fontSize=14;" vertex="1" parent="1">
          <mxGeometry x="1100" y="460" width="120" height="60" as="geometry" />
        </mxCell>
        <mxCell id="VPi010c3T4Fb0CU36pfW-12" style="edgeStyle=orthogonalEdgeStyle;rounded=0;orthogonalLoop=1;jettySize=auto;html=1;exitX=1;exitY=0.5;exitDx=0;exitDy=0;entryX=0.5;entryY=0;entryDx=0;entryDy=0;fontSize=14;" edge="1" parent="1" source="VPi010c3T4Fb0CU36pfW-2" target="00cH1n4YGTlZ0PjOOUdn-8">
          <mxGeometry relative="1" as="geometry">
            <Array as="points">
              <mxPoint x="1040" y="675" />
              <mxPoint x="1040" y="740" />
              <mxPoint x="1425" y="740" />
            </Array>
          </mxGeometry>
        </mxCell>
        <mxCell id="VPi010c3T4Fb0CU36pfW-2" value="Pool Scan Service Worker" style="rounded=0;whiteSpace=wrap;html=1;fontSize=14;" vertex="1" parent="1">
          <mxGeometry x="870" y="640" width="130" height="70" as="geometry" />
        </mxCell>
        <mxCell id="VPi010c3T4Fb0CU36pfW-15" value="gRPC Gateway" style="rounded=0;whiteSpace=wrap;html=1;fontSize=14;" vertex="1" parent="1">
          <mxGeometry x="1350" y="460" width="120" height="60" as="geometry" />
        </mxCell>
      </root>
    </mxGraphModel>
  </diagram>
</mxfile>
